<?xml version="1.0" standalone="no"?><!DOCTYPE svg PUBLIC "-//W3C//DTD SVG 1.1//EN" "http://www.w3.org/Graphics/SVG/1.1/DTD/svg11.dtd"><svg t="1719500790101" class="icon" viewBox="0 0 1024 1024" version="1.1" xmlns="http://www.w3.org/2000/svg" p-id="1496" xmlns:xlink="http://www.w3.org/1999/xlink" width="200" height="200"><path d="M932.912 77.824H91.072A90.56 90.56 0 0 0 0.64 168.256v687.456a90.56 90.56 0 0 0 90.432 90.448h841.84a90.56 90.56 0 0 0 90.432-90.448V168.272a90.544 90.544 0 0 0-90.432-90.448z m16.832 421.04L787.36 336.464a17.232 17.232 0 0 0-24.288 0L376.016 723.568l-139.44-139.44a17.184 17.184 0 0 0-24.288 0L74.24 722.224V168.272c0-9.264 7.536-16.832 16.832-16.832h841.824c9.296 0 16.848 7.568 16.848 16.832v330.592zM315.056 237.12c-61.488 0-111.488 50.016-111.488 111.52a111.6 111.6 0 0 0 111.488 111.488c61.504 0 111.52-50 111.52-111.488a111.632 111.632 0 0 0-111.52-111.52z" fill="#23ABFF" p-id="1497"></path></svg>